<svg width="22" height="20" viewBox="0 0 22 20" fill="none" xmlns="http://www.w3.org/2000/svg">
<path d="M6.99773 10L5.58192 10.89V9.11L6.99773 10ZM10.4681 7.82V5.34L6.03967 8.12L8.00902 9.36L10.4681 7.82ZM16.0355 8.12L11.5964 5.34V7.82L14.0555 9.36L16.0355 8.12ZM6.03967 11.88L10.4681 14.66V12.18L8.00902 10.64L6.03967 11.88ZM11.5964 12.18V14.66L16.0355 11.88L14.0555 10.64L11.5964 12.18ZM11.0322 8.74L9.03096 10L11.0322 11.26L13.0335 10L11.0322 8.74ZM21.6774 10C21.6774 15.5 16.8871 20 11.0322 20C5.17741 20 0.387085 15.5 0.387085 10C0.387085 4.5 5.17741 0 11.0322 0C16.8871 0 21.6774 4.5 21.6774 10ZM17.611 8.12V8.05L17.6003 8L17.5897 7.95C17.579 7.94 17.579 7.93 17.5684 7.91L17.5577 7.89L17.5364 7.85L17.5258 7.83L17.5045 7.8L17.4832 7.77L17.4513 7.74L17.4193 7.72V7.7L17.3768 7.68L17.3661 7.67L11.3516 3.91C11.2588 3.85127 11.1495 3.8199 11.0376 3.8199C10.9257 3.8199 10.8163 3.85127 10.7235 3.91L4.69838 7.67V7.68L4.64515 7.7V7.72L4.61321 7.74L4.58128 7.77L4.57063 7.8L4.5387 7.83L4.52805 7.85L4.50676 7.89L4.49612 7.91L4.47483 7.95V8H4.46418L4.45354 8.05V11.95L4.46418 12H4.47483V12.05C4.48547 12.06 4.48547 12.07 4.49612 12.09L4.50676 12.11L4.52805 12.15L4.5387 12.17L4.55999 12.2L4.58128 12.23L4.61321 12.26L4.64515 12.28V12.3L4.68773 12.32L4.69838 12.33L10.7235 16.1C10.8087 16.16 10.9258 16.18 11.0322 16.18C11.1387 16.18 11.2558 16.15 11.3516 16.1L17.3661 12.33L17.3768 12.32L17.4193 12.3V12.28L17.4513 12.26L17.4832 12.23L17.5045 12.2L17.5258 12.17L17.5364 12.15L17.5577 12.11L17.5684 12.09L17.5897 12.05V12H17.6003L17.611 11.95V8.12ZM16.4826 10.89V9.11L15.0668 10L16.4826 10.89Z" fill="black"/>
</svg>
