<svg width="22" height="16" viewBox="0 0 22 16" fill="none" xmlns="http://www.w3.org/2000/svg">
<path d="M19.8064 4L11.2903 9L2.77417 4V2L11.2903 7L19.8064 2V4ZM19.8064 0H2.77417C1.59256 0 0.645142 0.89 0.645142 2V14C0.645142 14.5304 0.86945 15.0391 1.26872 15.4142C1.66799 15.7893 2.20952 16 2.77417 16H19.8064C20.3711 16 20.9126 15.7893 21.3119 15.4142C21.7112 15.0391 21.9355 14.5304 21.9355 14V2C21.9355 1.46957 21.7112 0.960859 21.3119 0.585786C20.9126 0.210714 20.3711 0 19.8064 0Z" fill="black"/>
</svg>
