<svg width="20" height="18" viewBox="0 0 20 18" fill="none" xmlns="http://www.w3.org/2000/svg">
<path d="M17.2259 0C17.7905 0 18.332 0.210714 18.7313 0.585786C19.1306 0.960859 19.3549 1.46957 19.3549 2V16C19.3549 16.5304 19.1306 17.0391 18.7313 17.4142C18.332 17.7893 17.7905 18 17.2259 18H2.32264C1.75798 18 1.21645 17.7893 0.817183 17.4142C0.417912 17.0391 0.193604 16.5304 0.193604 16V2C0.193604 1.46957 0.417912 0.960859 0.817183 0.585786C1.21645 0.210714 1.75798 0 2.32264 0H17.2259ZM16.6936 15.5V10.2C16.6936 9.33539 16.328 8.5062 15.6772 7.89483C15.0264 7.28346 14.1437 6.94 13.2233 6.94C12.3184 6.94 11.2646 7.46 10.7536 8.24V7.13H7.7836V15.5H10.7536V10.57C10.7536 9.8 11.4136 9.17 12.2333 9.17C12.6285 9.17 13.0076 9.3175 13.2871 9.58005C13.5666 9.8426 13.7236 10.1987 13.7236 10.57V15.5H16.6936ZM4.32393 5.56C4.79824 5.56 5.25312 5.383 5.58851 5.06794C5.92389 4.75288 6.11231 4.32556 6.11231 3.88C6.11231 2.95 5.31393 2.19 4.32393 2.19C3.84679 2.19 3.3892 2.36805 3.05182 2.68499C2.71443 3.00193 2.52489 3.43178 2.52489 3.88C2.52489 4.81 3.33393 5.56 4.32393 5.56ZM5.8036 15.5V7.13H2.85489V15.5H5.8036Z" fill="#0176B5"/>
</svg>
