<svg width="23" height="20" viewBox="0 0 23 20" fill="none" xmlns="http://www.w3.org/2000/svg">
<path d="M11.5909 -1.46553e-06C5.77868 -1.46553e-06 1.04158 4.45 1.04158 9.91C1.04158 11.66 1.53126 13.36 2.44674 14.86L0.956421 20L6.54513 18.62C8.08868 19.41 9.82384 19.83 11.5909 19.83C17.4032 19.83 22.1403 15.38 22.1403 9.92C22.1403 7.27 21.0438 4.78 19.0532 2.91C18.0772 1.98392 16.9148 1.24967 15.6336 0.75005C14.3524 0.250433 12.9781 -0.00454115 11.5909 -1.46553e-06ZM11.6016 1.67C13.9435 1.67 16.1364 2.53 17.7971 4.09C18.6121 4.85535 19.2582 5.76432 19.6985 6.76476C20.1387 7.7652 20.3644 8.83745 20.3626 9.92C20.3626 14.46 16.4238 18.15 11.5909 18.15C10.0155 18.15 8.4719 17.76 7.13061 17L6.81126 16.83L3.48997 17.65L4.37352 14.61L4.16061 14.29C3.28126 12.9787 2.81614 11.4598 2.81932 9.91C2.82997 5.37 6.75803 1.67 11.6016 1.67ZM7.85448 5.33C7.68416 5.33 7.39674 5.39 7.1519 5.64C6.91771 5.89 6.22578 6.5 6.22578 7.71C6.22578 8.93 7.17319 10.1 7.29029 10.27C7.43932 10.44 9.16384 12.94 11.8145 14C12.4425 14.27 12.9322 14.42 13.3155 14.53C13.9435 14.72 14.5184 14.69 14.9761 14.63C15.4871 14.56 16.5303 14.03 16.7538 13.45C16.9774 12.87 16.9774 12.38 16.9135 12.27C16.839 12.17 16.6687 12.11 16.4025 12C16.1364 11.86 14.8377 11.26 14.6035 11.18C14.3587 11.1 14.2096 11.06 14.0074 11.3C13.8371 11.55 13.3261 12.11 13.1771 12.27C13.0174 12.44 12.8684 12.46 12.6129 12.34C12.3361 12.21 11.4845 11.95 10.4838 11.11C9.6961 10.45 9.17448 9.64 9.01481 9.39C8.88707 9.15 9.00416 9 9.1319 8.89C9.249 8.78 9.41932 8.6 9.52578 8.45C9.66416 8.31 9.70674 8.2 9.7919 8.04C9.87707 7.87 9.83449 7.73 9.77061 7.61C9.70674 7.5 9.17449 6.26 8.95094 5.77C8.73803 5.29 8.52513 5.35 8.35481 5.34C8.20578 5.34 8.03545 5.33 7.85448 5.33Z" fill="#44C24F"/>
</svg>
