<svg width="22" height="20" viewBox="0 0 22 20" fill="none" xmlns="http://www.w3.org/2000/svg">
<path d="M10.7742 0C9.37625 0 7.99199 0.258658 6.70046 0.761205C5.40893 1.26375 4.23542 2.00035 3.24692 2.92893C1.25057 4.8043 0.129028 7.34784 0.129028 10C0.129028 14.42 3.18419 18.17 7.41032 19.5C7.94258 19.58 8.1129 19.27 8.1129 19V17.31C5.16419 17.91 4.53613 15.97 4.53613 15.97C4.04645 14.81 3.35451 14.5 3.35451 14.5C2.3858 13.88 3.42903 13.9 3.42903 13.9C4.49354 13.97 5.05774 14.93 5.05774 14.93C5.98387 16.45 7.54871 16 8.15548 15.76C8.25129 15.11 8.52806 14.67 8.82613 14.42C6.4629 14.17 3.98258 13.31 3.98258 9.5C3.98258 8.39 4.38709 7.5 5.07903 6.79C4.97258 6.54 4.6 5.5 5.18548 4.15C5.18548 4.15 6.07967 3.88 8.1129 5.17C8.95387 4.95 9.86935 4.84 10.7742 4.84C11.679 4.84 12.5945 4.95 13.4355 5.17C15.4687 3.88 16.3629 4.15 16.3629 4.15C16.9484 5.5 16.5758 6.54 16.4694 6.79C17.1613 7.5 17.5658 8.39 17.5658 9.5C17.5658 13.32 15.0748 14.16 12.701 14.41C13.0842 14.72 13.4355 15.33 13.4355 16.26V19C13.4355 19.27 13.6058 19.59 14.1487 19.5C18.3748 18.16 21.4194 14.42 21.4194 10C21.4194 8.68678 21.144 7.38642 20.609 6.17317C20.0741 4.95991 19.29 3.85752 18.3015 2.92893C17.313 2.00035 16.1394 1.26375 14.8479 0.761205C13.5564 0.258658 12.1721 0 10.7742 0Z" fill="black"/>
</svg>
